<mxfile host="app.diagrams.net" agent="Mozilla/5.0 (Windows NT 10.0; Win64; x64) AppleWebKit/537.36 (KHTML, like Gecko) Chrome/137.0.0.0 Safari/537.36 Edg/137.0.0.0" version="27.1.3">
  <diagram name="Page-1" id="2YBvvXClWsGukQMizWep">
    <mxGraphModel dx="1828" dy="521" grid="1" gridSize="10" guides="1" tooltips="1" connect="1" arrows="1" fold="1" page="1" pageScale="1" pageWidth="850" pageHeight="1100" math="0" shadow="0">
      <root>
        <mxCell id="0" />
        <mxCell id="1" parent="0" />
        <mxCell id="5DM1qvP_Hou1cKNvxJHR-31" value="账户中台会员id" style="html=1;verticalAlign=bottom;endArrow=open;dashed=1;endSize=8;curved=0;rounded=0;exitX=0.5;exitY=0.906;exitDx=0;exitDy=0;exitPerimeter=0;" edge="1" parent="1">
          <mxGeometry relative="1" as="geometry">
            <mxPoint x="90" y="407.9200000000001" as="sourcePoint" />
            <mxPoint x="-60" y="410" as="targetPoint" />
          </mxGeometry>
        </mxCell>
        <mxCell id="aM9ryv3xv72pqoxQDRHE-1" value="账户中台" style="shape=umlLifeline;perimeter=lifelinePerimeter;whiteSpace=wrap;html=1;container=0;dropTarget=0;collapsible=0;recursiveResize=0;outlineConnect=0;portConstraint=eastwest;newEdgeStyle={&quot;edgeStyle&quot;:&quot;elbowEdgeStyle&quot;,&quot;elbow&quot;:&quot;vertical&quot;,&quot;curved&quot;:0,&quot;rounded&quot;:0};" parent="1" vertex="1">
          <mxGeometry x="40" y="40" width="100" height="390" as="geometry" />
        </mxCell>
        <mxCell id="aM9ryv3xv72pqoxQDRHE-2" value="" style="html=1;points=[];perimeter=orthogonalPerimeter;outlineConnect=0;targetShapes=umlLifeline;portConstraint=eastwest;newEdgeStyle={&quot;edgeStyle&quot;:&quot;elbowEdgeStyle&quot;,&quot;elbow&quot;:&quot;vertical&quot;,&quot;curved&quot;:0,&quot;rounded&quot;:0};" parent="aM9ryv3xv72pqoxQDRHE-1" vertex="1">
          <mxGeometry x="45" y="70" width="10" height="320" as="geometry" />
        </mxCell>
        <mxCell id="5DM1qvP_Hou1cKNvxJHR-4" value="" style="html=1;points=[[0,0,0,0,5],[0,1,0,0,-5],[1,0,0,0,5],[1,1,0,0,-5]];perimeter=orthogonalPerimeter;outlineConnect=0;targetShapes=umlLifeline;portConstraint=eastwest;newEdgeStyle={&quot;curved&quot;:0,&quot;rounded&quot;:0};" vertex="1" parent="aM9ryv3xv72pqoxQDRHE-1">
          <mxGeometry x="50" y="108" width="10" height="250" as="geometry" />
        </mxCell>
        <mxCell id="5DM1qvP_Hou1cKNvxJHR-5" value="redis锁业务会员id" style="html=1;align=left;spacingLeft=2;endArrow=block;rounded=0;edgeStyle=orthogonalEdgeStyle;curved=0;rounded=0;" edge="1" target="5DM1qvP_Hou1cKNvxJHR-4" parent="aM9ryv3xv72pqoxQDRHE-1">
          <mxGeometry relative="1" as="geometry">
            <mxPoint x="55" y="88" as="sourcePoint" />
            <Array as="points">
              <mxPoint x="85" y="118" />
            </Array>
          </mxGeometry>
        </mxCell>
        <mxCell id="5DM1qvP_Hou1cKNvxJHR-8" value="" style="html=1;points=[[0,0,0,0,5],[0,1,0,0,-5],[1,0,0,0,5],[1,1,0,0,-5]];perimeter=orthogonalPerimeter;outlineConnect=0;targetShapes=umlLifeline;portConstraint=eastwest;newEdgeStyle={&quot;curved&quot;:0,&quot;rounded&quot;:0};" vertex="1" parent="aM9ryv3xv72pqoxQDRHE-1">
          <mxGeometry x="55" y="148" width="10" height="20" as="geometry" />
        </mxCell>
        <mxCell id="5DM1qvP_Hou1cKNvxJHR-9" value="根据业务会员id查询会员信息" style="html=1;align=left;spacingLeft=2;endArrow=block;rounded=0;edgeStyle=orthogonalEdgeStyle;curved=0;rounded=0;" edge="1" target="5DM1qvP_Hou1cKNvxJHR-8" parent="aM9ryv3xv72pqoxQDRHE-1">
          <mxGeometry relative="1" as="geometry">
            <mxPoint x="60" y="128" as="sourcePoint" />
            <Array as="points">
              <mxPoint x="90" y="158" />
            </Array>
          </mxGeometry>
        </mxCell>
        <mxCell id="5DM1qvP_Hou1cKNvxJHR-25" value="" style="html=1;points=[[0,0,0,0,5],[0,1,0,0,-5],[1,0,0,0,5],[1,1,0,0,-5]];perimeter=orthogonalPerimeter;outlineConnect=0;targetShapes=umlLifeline;portConstraint=eastwest;newEdgeStyle={&quot;curved&quot;:0,&quot;rounded&quot;:0};" vertex="1" parent="aM9ryv3xv72pqoxQDRHE-1">
          <mxGeometry x="55" y="338" width="10" height="10" as="geometry" />
        </mxCell>
        <mxCell id="5DM1qvP_Hou1cKNvxJHR-26" value="更新渠道会员id，状态为注册成功" style="html=1;align=left;spacingLeft=2;endArrow=block;rounded=0;edgeStyle=orthogonalEdgeStyle;curved=0;rounded=0;" edge="1" parent="aM9ryv3xv72pqoxQDRHE-1">
          <mxGeometry relative="1" as="geometry">
            <mxPoint x="60" y="312" as="sourcePoint" />
            <Array as="points">
              <mxPoint x="90" y="342" />
            </Array>
            <mxPoint x="65" y="342" as="targetPoint" />
          </mxGeometry>
        </mxCell>
        <mxCell id="aM9ryv3xv72pqoxQDRHE-5" value="建行" style="shape=umlLifeline;perimeter=lifelinePerimeter;whiteSpace=wrap;html=1;container=0;dropTarget=0;collapsible=0;recursiveResize=0;outlineConnect=0;portConstraint=eastwest;newEdgeStyle={&quot;edgeStyle&quot;:&quot;elbowEdgeStyle&quot;,&quot;elbow&quot;:&quot;vertical&quot;,&quot;curved&quot;:0,&quot;rounded&quot;:0};" parent="1" vertex="1">
          <mxGeometry x="254" y="40" width="100" height="390" as="geometry" />
        </mxCell>
        <mxCell id="5DM1qvP_Hou1cKNvxJHR-6" value="会员信息不存在" style="shape=umlFrame;whiteSpace=wrap;html=1;pointerEvents=0;" vertex="1" parent="1">
          <mxGeometry x="20" y="210" width="300" height="138" as="geometry" />
        </mxCell>
        <mxCell id="5DM1qvP_Hou1cKNvxJHR-13" value="" style="html=1;points=[[0,0,0,0,5],[0,1,0,0,-5],[1,0,0,0,5],[1,1,0,0,-5]];perimeter=orthogonalPerimeter;outlineConnect=0;targetShapes=umlLifeline;portConstraint=eastwest;newEdgeStyle={&quot;curved&quot;:0,&quot;rounded&quot;:0};" vertex="1" parent="1">
          <mxGeometry x="299" y="270" width="10" height="22" as="geometry" />
        </mxCell>
        <mxCell id="5DM1qvP_Hou1cKNvxJHR-14" value="调用建行会员注册(&lt;span style=&quot;background-color: light-dark(#ffffff, var(--ge-dark-color, #121212)); color: light-dark(rgb(0, 0, 0), rgb(255, 255, 255));&quot;&gt;AB520N90&lt;/span&gt;)" style="html=1;verticalAlign=bottom;endArrow=block;curved=0;rounded=0;" edge="1" target="5DM1qvP_Hou1cKNvxJHR-13" parent="1">
          <mxGeometry relative="1" as="geometry">
            <mxPoint x="100" y="272.00000000000006" as="sourcePoint" />
            <mxPoint x="265" y="272.00000000000006" as="targetPoint" />
          </mxGeometry>
        </mxCell>
        <mxCell id="5DM1qvP_Hou1cKNvxJHR-15" value="建行会员id" style="html=1;verticalAlign=bottom;endArrow=open;dashed=1;endSize=8;curved=0;rounded=0;" edge="1" parent="1">
          <mxGeometry relative="1" as="geometry">
            <mxPoint x="100.00000000000023" y="291" as="targetPoint" />
            <mxPoint x="299" y="291" as="sourcePoint" />
          </mxGeometry>
        </mxCell>
        <mxCell id="5DM1qvP_Hou1cKNvxJHR-18" value="会员信息注册中" style="shape=umlFrame;whiteSpace=wrap;html=1;pointerEvents=0;" vertex="1" parent="1">
          <mxGeometry x="20" y="298" width="300" height="50" as="geometry" />
        </mxCell>
        <mxCell id="5DM1qvP_Hou1cKNvxJHR-20" value="" style="html=1;points=[[0,0,0,0,5],[0,1,0,0,-5],[1,0,0,0,5],[1,1,0,0,-5]];perimeter=orthogonalPerimeter;outlineConnect=0;targetShapes=umlLifeline;portConstraint=eastwest;newEdgeStyle={&quot;curved&quot;:0,&quot;rounded&quot;:0};" vertex="1" parent="1">
          <mxGeometry x="95" y="237" width="10" height="21" as="geometry" />
        </mxCell>
        <mxCell id="5DM1qvP_Hou1cKNvxJHR-21" value="保存会员信息 状态为注册中" style="html=1;align=left;spacingLeft=2;endArrow=block;rounded=0;edgeStyle=orthogonalEdgeStyle;curved=0;rounded=0;" edge="1" target="5DM1qvP_Hou1cKNvxJHR-20" parent="1">
          <mxGeometry relative="1" as="geometry">
            <mxPoint x="100" y="217" as="sourcePoint" />
            <Array as="points">
              <mxPoint x="130" y="247" />
            </Array>
          </mxGeometry>
        </mxCell>
        <mxCell id="5DM1qvP_Hou1cKNvxJHR-22" value="" style="html=1;points=[[0,0,0,0,5],[0,1,0,0,-5],[1,0,0,0,5],[1,1,0,0,-5]];perimeter=orthogonalPerimeter;outlineConnect=0;targetShapes=umlLifeline;portConstraint=eastwest;newEdgeStyle={&quot;curved&quot;:0,&quot;rounded&quot;:0};" vertex="1" parent="1">
          <mxGeometry x="299" y="315" width="10" height="25" as="geometry" />
        </mxCell>
        <mxCell id="5DM1qvP_Hou1cKNvxJHR-23" value="调用建行会员查询(&lt;span style=&quot;background-color: light-dark(#ffffff, var(--ge-dark-color, #121212)); color: light-dark(rgb(0, 0, 0), rgb(255, 255, 255));&quot;&gt;AB520N091&lt;/span&gt;)" style="html=1;verticalAlign=bottom;endArrow=block;curved=0;rounded=0;" edge="1" parent="1">
          <mxGeometry relative="1" as="geometry">
            <mxPoint x="100" y="317" as="sourcePoint" />
            <mxPoint x="299" y="317" as="targetPoint" />
          </mxGeometry>
        </mxCell>
        <mxCell id="5DM1qvP_Hou1cKNvxJHR-24" value="建行会员id" style="html=1;verticalAlign=bottom;endArrow=open;dashed=1;endSize=8;curved=0;rounded=0;" edge="1" parent="1">
          <mxGeometry relative="1" as="geometry">
            <mxPoint x="100" y="338" as="targetPoint" />
            <mxPoint x="299" y="338" as="sourcePoint" />
            <Array as="points">
              <mxPoint x="230" y="338" />
            </Array>
          </mxGeometry>
        </mxCell>
        <mxCell id="5DM1qvP_Hou1cKNvxJHR-30" value="" style="edgeStyle=orthogonalEdgeStyle;rounded=0;orthogonalLoop=1;jettySize=auto;html=1;endArrow=none;startFill=0;" edge="1" parent="1" source="5DM1qvP_Hou1cKNvxJHR-28">
          <mxGeometry relative="1" as="geometry">
            <mxPoint x="-60" y="430" as="targetPoint" />
          </mxGeometry>
        </mxCell>
        <mxCell id="5DM1qvP_Hou1cKNvxJHR-28" value="融担业务系统" style="shape=umlActor;verticalLabelPosition=bottom;verticalAlign=top;html=1;" vertex="1" parent="1">
          <mxGeometry x="-75" y="30" width="30" height="60" as="geometry" />
        </mxCell>
        <mxCell id="5DM1qvP_Hou1cKNvxJHR-32" value="会员信息注册" style="html=1;verticalAlign=bottom;endArrow=block;curved=0;rounded=0;" edge="1" parent="1" target="aM9ryv3xv72pqoxQDRHE-2">
          <mxGeometry width="80" relative="1" as="geometry">
            <mxPoint x="-60" y="123" as="sourcePoint" />
            <mxPoint x="89.5" y="123" as="targetPoint" />
          </mxGeometry>
        </mxCell>
      </root>
    </mxGraphModel>
  </diagram>
</mxfile>
